<mxfile host="app.diagrams.net" modified="2024-03-13T10:01:17.483Z" agent="Mozilla/5.0 (Macintosh; Intel Mac OS X 10_15_7) AppleWebKit/537.36 (KHTML, like Gecko) Chrome/122.0.0.0 Safari/537.36" version="24.0.3" etag="_Vx5wB9jLw1ZgNmWHhq1" type="github">
  <diagram name="第 1 页" id="GEY6Qk0OPt4D6-i5Qygv">
    <mxGraphModel>
      <root>
        <mxCell id="0" />
        <mxCell id="1" parent="0" />
      </root>
    </mxGraphModel>
  </diagram>
</mxfile>
